<svg id="Layer_1" data-name="Layer 1" xmlns="http://www.w3.org/2000/svg" viewBox="0 0 96 96"><defs><style>.cls-1{fill:#fff;}</style></defs><path class="cls-1" d="M15.75,96a3.33,3.33,0,0,1-2.15-3.53q.06-25.59,0-51.17V40.14H52.75c0,.72,0,1.4,0,2.08a1.67,1.67,0,0,0,1.89,1.83q7.73,0,15.46,0A1.67,1.67,0,0,0,72,42.12c0-.62-.07-1.25-.11-2h10.5V41.3q0,25.58,0,51.17A3.33,3.33,0,0,1,80.25,96Zm35.1-24.31c1.07,0,2,0,3,0a2.18,2.18,0,0,1,1.88.78q2.37,2.47,4.84,4.84a2.8,2.8,0,0,0,4-4c-.39-.44-.83-.85-1.25-1.27l-3.2-3.16c1.46-1.45,2.82-2.78,4.15-4.14a2.83,2.83,0,0,0,.19-4.17,2.87,2.87,0,0,0-4.17.21c-1.58,1.56-3.14,3.14-4.72,4.7-.21.21-.48.51-.73.52-1.29.06-2.58,0-3.94,0,0-.93.06-1.72,0-2.49a2.23,2.23,0,0,1,.83-2q2.43-2.34,4.77-4.76a2.78,2.78,0,0,0,.5-3.29A2.61,2.61,0,0,0,54,52.15a4.25,4.25,0,0,0-1.82,1c-1.41,1.32-2.72,2.73-4.16,4.18-1.43-1.45-2.76-2.82-4.11-4.16A2.8,2.8,0,0,0,39.78,53,2.86,2.86,0,0,0,40,57.18c1.56,1.58,3.14,3.13,4.7,4.71.21.21.48.49.49.75.06,1.11,0,2.23,0,3.44-1.22,0-2.34,0-3.45,0a2.14,2.14,0,0,1-1.22-.5c-1.64-1.58-3.24-3.21-4.85-4.82a2.81,2.81,0,0,0-2.91-.83,2.77,2.77,0,0,0-1.13,4.72c1.38,1.43,2.82,2.8,4.28,4.23-1.47,1.47-2.87,2.81-4.18,4.22a4.11,4.11,0,0,0-1,1.74,2.61,2.61,0,0,0,1.37,2.92,2.83,2.83,0,0,0,3.37-.51c1.7-1.65,3.36-3.35,5.05-5,.22-.21.49-.48.75-.49,1.27,0,2.55,0,3.91,0,0,1.16,0,2.22,0,3.27a1.89,1.89,0,0,1-.64,1.56q-2.46,2.39-4.85,4.83a2.79,2.79,0,0,0-.49,3.29,2.65,2.65,0,0,0,3,1.4A4.36,4.36,0,0,0,44,85c1.4-1.32,2.73-2.72,4.15-4.15,1.43,1.44,2.76,2.79,4.11,4.13a2.82,2.82,0,0,0,4.16.25A2.88,2.88,0,0,0,56.19,81C54.58,79.4,53,77.8,51.36,76.17a1.72,1.72,0,0,1-.49-.94C50.81,74.12,50.85,73,50.85,71.69Z"/><path class="cls-1" d="M41.25,0a3.46,3.46,0,0,1,2.07,3.69c-.09,2.21,0,4.43,0,6.71H18.22V8.77c0-1.69.07-3.38,0-5.06A3.47,3.47,0,0,1,20.25,0Z"/><path class="cls-1" d="M13.65,22.36c0-1.41-.05-2.66,0-3.9A2.45,2.45,0,0,1,16,16.11c.25,0,.5,0,.75,0,13.63,0,27.25,0,40.87,0A24.5,24.5,0,0,1,81.25,33.28c.11.35.21.71.35,1.19h-1c-3.31,0-6.62,0-9.94,0a1.33,1.33,0,0,1-.9-.55A17.13,17.13,0,0,0,55,25.21c-1.68-.06-2.26.51-2.27,2.22v7h-39V28c1.68,0,3.36,0,5,0a5.64,5.64,0,0,0,1.48-.15,2.73,2.73,0,0,0,1.9-2.89,2.69,2.69,0,0,0-2.41-2.48c-1.43-.13-2.87-.07-4.31-.09Z"/></svg>