<svg id="Layer_1" data-name="Layer 1" xmlns="http://www.w3.org/2000/svg" viewBox="0 0 96 96"><defs><style>.cls-1{fill:#fff;}</style></defs><path class="cls-1" d="M71.55,87.24l4.38,2.87,1.21-1.82c-1.47-1-2.85-2-4.32-2.81A2.4,2.4,0,0,1,71.45,83c.12-2,0-4,0-6.2l4.46,2.88,1.19-1.81c-1.58-1-3.12-2-4.6-3.06A12.11,12.11,0,0,1,71,73.09H65.74a12.88,12.88,0,0,1-.62,2.1,3.38,3.38,0,0,1-3.21,1.92q-13.87,0-27.74,0c-2.22,0-3.4-1.27-3.81-4H24.54a26.86,26.86,0,0,0,0,3.36,2.9,2.9,0,0,1-1.8,3.28,44.08,44.08,0,0,0-3.86,2.5l1.17,1.83,4.57-3a71.72,71.72,0,0,1-.41,7.69c-.32,2-2.4,3.4-4.56,3.43-3.55,0-7.09.06-10.64,0a4.66,4.66,0,0,1-4.63-4.9L6.55,88.7,8.7,90.1l1.2-1.81A30.43,30.43,0,0,0,6.34,86a3.51,3.51,0,0,1-2.13-4c.17-1.65,0-3.33,0-5.24l2.27,1.49,2.17,1.41L9.9,77.83c-1.65-1.09-3.21-2.16-4.82-3.15a1.61,1.61,0,0,1-.85-1.6c0-2.18,0-4.37,0-6.79l4.44,2.89,1.22-1.81c-1.59-1-3.11-2.1-4.7-3.06a1.82,1.82,0,0,1-1-1.85c.06-2.12,0-4.23,0-6.62l4.44,2.88,1.23-1.8a37,37,0,0,0-3.68-2.37,3.2,3.2,0,0,1-2-3.83,23.35,23.35,0,0,1,.42-2.57,8.59,8.59,0,0,1,1.09-1.79L8.7,48.27l1.19-1.79-1.8-1.25c.53-.06.82-.12,1.11-.12,3.48,0,7,0,10.42,0a4.9,4.9,0,0,1,4.26,2.46l-5,3.32,1.17,1.8,4.47-2.87c0,2.62,0,5,0,7.48,0,.27-.39.58-.67.77-1.6,1.08-3.22,2.13-4.94,3.26l1.19,1.83,4.42-2.89v3.94h5.81l.59-2.44c-1.41-1-1.59-2.53-1.56-4.21,0-3.83,0-7.67,0-11.51a3.88,3.88,0,0,0-3.6-4A13,13,0,0,0,24.24,42c-5.56,0-11.12,0-16.67,0a5.4,5.4,0,0,0-4,1.32,17.61,17.61,0,0,1-1.62,1.18L0,41.87c2.15-1.7,4.12-3.44,7.18-3.24,3.24.22,6.5,0,9.82,0,.18-.72.36-1.38.53-2a7.5,7.5,0,0,1,7.38-5.87c1.45,0,2.91,0,4.5,0,.12-1.17.24-2.29.33-3.4.33-4.19.64-8.38,1-12.56.06-.68-.08-1-.8-1.1-3.71-.8-7.4-1.67-11.1-2.51-1.69-.39-1.79-.3-1.76,1.47,0,.18,0,.36,0,.62l.87,0a1.54,1.54,0,0,1,1.59,1.62c0,2.59,0,5.19,0,7.78a1.48,1.48,0,0,1-1.63,1.55c-1.31,0-2.63,0-3.94,0a1.49,1.49,0,0,1-1.61-1.58c0-2.59-.05-5.19,0-7.78,0-1.17.6-1.5,2.5-1.66,0-.49,0-1,0-1.49a2.78,2.78,0,0,1,3.56-2.88c3.78.82,7.55,1.69,11.33,2.53.35.08.7.14,1.19.23.12-1.26.24-2.45.34-3.63a4.28,4.28,0,0,1,4.5-4.26q12.22,0,24.45,0A4.27,4.27,0,0,1,64.71,8c.09,1.19.21,2.38.33,3.72,1.42-.31,2.73-.58,4-.88,2.78-.62,5.55-1.28,8.33-1.88,2.25-.49,3.71.72,3.74,3v1.35l.72.05c1.21.08,1.77.57,1.79,1.75,0,2.49,0,5,0,7.46a1.58,1.58,0,0,1-1.78,1.75c-1.21,0-2.41,0-3.62,0s-1.79-.55-1.8-1.72c0-2.49,0-5,0-7.46,0-1.34.45-1.63,2.41-1.87a1.4,1.4,0,0,0,.09-.29c.11-2,0-2.14-2-1.68-3.63.83-7.26,1.67-10.9,2.45-.65.14-.8.39-.75,1q.63,7.53,1.19,15.07c.05.77.35,1,1.08,1,1.09-.06,2.19,0,3.29,0a7.52,7.52,0,0,1,7.69,6c.15.6.31,1.2.5,1.89h6.8a19.21,19.21,0,0,0,2.63,0c3.14-.42,5.33,1.3,7.55,3.2l-1.88,2.59a26,26,0,0,0-2.41-1.71A5,5,0,0,0,89.5,42q-9.1-.09-18.2,0a6.7,6.7,0,0,0-2.9.77,3.12,3.12,0,0,0-1.78,3.11c.1,4.09,0,8.19,0,12.28a4.26,4.26,0,0,1-1.26,3.37.93.93,0,0,0-.19.73c.11.64.3,1.26.49,2h5.55c.11.16.19.22.18.27-.25,1.45.51,2.25,1.71,2.88.93.48,1.78,1.13,2.77,1.77l1.22-1.8c-1.68-1.1-3.27-2.18-4.91-3.2a1.44,1.44,0,0,1-.77-1.4c.05-2.23,0-4.46,0-6.93l4.46,2.89,1.18-1.82c-1.65-1.09-3.21-2.17-4.82-3.15a1.52,1.52,0,0,1-.83-1.59,19.15,19.15,0,0,1,.12-3,17.33,17.33,0,0,1,1.26-2.94l3.09,2,1.18-1.79-1.7-1.2a5,5,0,0,1,.82-.17c3.58,0,7.16,0,10.75,0a4.75,4.75,0,0,1,4.12,2.46l-5,3.31,1.19,1.82,4.45-2.91v1.42c0,1.83,0,3.66,0,5.48A1.44,1.44,0,0,1,91,58.13c-1.63,1-3.22,2.11-4.9,3.21l1.2,1.82,4.44-2.9c0,2.65,0,5,0,7.44,0,.3-.41.65-.71.86-1.59,1.09-3.22,2.13-4.89,3.23l1.19,1.82,4.44-2.88c0,2.63,0,5.07,0,7.5,0,.26-.4.57-.67.76-1.61,1.09-3.23,2.14-4.94,3.27l1.2,1.81,4.26-2.77a59.87,59.87,0,0,1-.07,7.35c-.25,2.08-2.36,3.55-4.55,3.58-3.58,0-7.16.07-10.74,0A4.81,4.81,0,0,1,71.55,87.24ZM34.19,59.07V37.19c0-4.51,2.81-7.34,7.31-7.35,4.31,0,8.62,0,12.94,0,4.57,0,7.39,2.81,7.39,7.37V59.07c.94.12,1.57.22,1.56-1-.17-12.49.46-25-.92-37.46-.27-2.49-.43-5-.65-7.46H34.19c-.19,2.25-.38,4.43-.55,6.62-.33,4.26-.86,8.52-.94,12.78-.15,8.41,0,16.81,0,25.22C32.66,59.18,32.66,59.18,34.19,59.07Zm19.14-25.8H42.68c.56,3.38,1.07,6.65,1.67,9.91a1.84,1.84,0,0,0,1.9,1.52c1.17,0,2.34,0,3.5,0a1.89,1.89,0,0,0,2-1.61C52.28,39.87,52.78,36.63,53.33,33.27ZM42.17,49.68A3.28,3.28,0,0,0,38.92,53a3.34,3.34,0,0,0,3.26,3.31,3.38,3.38,0,0,0,3.33-3.38A3.32,3.32,0,0,0,42.17,49.68Zm11.64,0a3.32,3.32,0,0,0-3.3,3.26,3.37,3.37,0,0,0,3.25,3.33,3.33,3.33,0,0,0,3.34-3.34A3.28,3.28,0,0,0,53.81,49.68ZM20,73.53c.16,0,.24,0,.3-.08l2.83-1.84c1.52-1,1.72-1.55,1.18-3.4l-5.43,3.58Zm18.65-2.15V66h-2v5.38Zm4.72,0h2V66h-2Zm15.56,0V66H56.9v5.34ZM50.16,66v5.38h2V66Z"/></svg>