<svg id="Layer_1" data-name="Layer 1" xmlns="http://www.w3.org/2000/svg" viewBox="0 0 96 96"><defs><style>.cls-1{fill:#fff;}</style></defs><path class="cls-1" d="M47,66.55c-5.72,0-11.44,0-17.16,0A5.66,5.66,0,0,1,26,64.9c-1.33-1.25-1.35-2.72.2-3.67a15.8,15.8,0,0,1,4.61-2,73.86,73.86,0,0,1,16.32-1.89,22.76,22.76,0,0,1,1-4.47,93.26,93.26,0,0,1,7-15.84L52.23,37c-1.82-.06-3.64,0-5.46,0v-.17c-8.48.27-17,.49-25.45.85-2.7.12-3.5-1.1-2.15-3.39,1-1.76,2-3.6,3.11-5.28,1.79-2.64,4.67-3.53,7.58-4.2a77.82,77.82,0,0,1,21.42-1.65,77.34,77.34,0,0,1,11,1.31c1.16-1.89,2.35-3.77,3.55-5.63A81.23,81.23,0,0,0,51.3,16.88a81.88,81.88,0,0,0-23.72,2c-3.59.89-6.89,2.33-9.42,5.19a30.51,30.51,0,0,0-4.6,7.43c-.29.61-.59.92-1.31.85s-1.75,0-2.63,0a3.13,3.13,0,0,0-3,1.77A2.92,2.92,0,0,0,7,37.51c.49.6.4,1.05-.26,1.42-.49.27-1,.56-1.45.81A6.94,6.94,0,0,0,1.4,45.13c-.5,3.66-1,7.34-1.28,11A52.19,52.19,0,0,0,1.83,73c.39,1.56,1.11,2.77,2.79,3.1.44,2.05,1.45,3.13,3.09,3.14q5.56.06,11.13,0a3.06,3.06,0,0,0,2.93-2.31l.2-.76a130.42,130.42,0,0,1,30.38-2.32,22.4,22.4,0,0,1-4.12-7.28ZM21.8,49.87c-.05.27-.58.6-.93.64-2.32.25-4.66.43-7.36.66a38.7,38.7,0,0,1-4.4-.3,3.62,3.62,0,0,1-2.62-5.18,1.67,1.67,0,0,1,1.2-.79,15.08,15.08,0,0,1,3.86.17,31.06,31.06,0,0,1,8.72,3,3.9,3.9,0,0,1,1.05.69A1.61,1.61,0,0,1,21.8,49.87Z"/><path class="cls-1" d="M95.52,55.27A59.9,59.9,0,0,0,90.89,43c-1.74-3.61-3.61-7.15-5.57-10.63C82,26.53,78.44,20.84,74.73,15.23a9.15,9.15,0,0,0-1.43-1.42H72.24A7.53,7.53,0,0,0,71,15q-1.27,1.92-2.53,3.85c-1.2,1.86-2.39,3.74-3.55,5.63q-3,4.84-5.72,9.82c-.52.93-1,1.86-1.53,2.8a93.26,93.26,0,0,0-7,15.84,22.76,22.76,0,0,0-1,4.47,19,19,0,0,0,.08,4.88,25.14,25.14,0,0,0,1.06,4.31A22.4,22.4,0,0,0,55,73.83a23.47,23.47,0,0,0,1.88,2,22.69,22.69,0,0,0,15.43,6.35,22.39,22.39,0,0,0,11.78-2.91l.06,0A22.8,22.8,0,0,0,94,68.3,20.44,20.44,0,0,0,95.52,55.27ZM74.63,73a1.86,1.86,0,0,1-1.91,1.76h-.6a15.84,15.84,0,0,1-13.18-8.19A16.11,16.11,0,0,1,57,59a1.86,1.86,0,0,1,1.74-1.85,1.8,1.8,0,0,1,1.78,1.11,1.41,1.41,0,0,1,.12.49,14.68,14.68,0,0,0,.91,4.69,14.26,14.26,0,0,0,1.84,3.13A11.76,11.76,0,0,0,72,71c.33,0,.67,0,1,.08A1.84,1.84,0,0,1,74.63,73Z"/></svg>