<svg id="Layer_1" data-name="Layer 1" xmlns="http://www.w3.org/2000/svg" xmlns:xlink="http://www.w3.org/1999/xlink" viewBox="0 0 96 96"><defs><style>.cls-1{fill:none;}.cls-2{fill:#fff;}.cls-3{fill:#0b0b0b;}.cls-4{clip-path:url(#clip-path);}</style><clipPath id="clip-path"><rect class="cls-1" x="38.26" y="38.87" width="57.13" height="57.13"/></clipPath></defs><polygon class="cls-1" points="40.64 29.73 40.64 32.14 40.64 34.55 43.13 34.55 45.63 34.55 45.63 32.14 45.63 29.73 43.13 29.73 40.64 29.73"/><polygon class="cls-1" points="30.34 40.03 30.34 42.52 30.34 45.02 32.75 45.02 35.16 45.02 35.16 42.52 35.16 40.03 32.75 40.03 30.34 40.03"/><path class="cls-2" d="M43.14,7.22a3.3,3.3,0,0,0,3.19-1.89,3.61,3.61,0,0,0-1.56-5,4.5,4.5,0,0,0-3.21,0A3.62,3.62,0,0,0,40,5.33,3.28,3.28,0,0,0,43.14,7.22Z"/><path class="cls-2" d="M29.24,8.63a3.64,3.64,0,0,0,5.35-4.2,3.68,3.68,0,0,0-4.83-2.36,4,4,0,0,0-2.23,2.58A3.56,3.56,0,0,0,29.24,8.63Z"/><path class="cls-2" d="M53.48,8.72a3.66,3.66,0,1,0,0-6.48,3.57,3.57,0,0,0-1.89,2.44A3.64,3.64,0,0,0,53.48,8.72Z"/><path class="cls-2" d="M23.28,13.13c.47-.64.5-.83.5-2.09s0-1.44-.5-2.11A3.82,3.82,0,0,0,19,7.55a3.73,3.73,0,0,0-2.29,4.59A3.73,3.73,0,0,0,23.28,13.13Z"/><path class="cls-2" d="M63.88,14a2.86,2.86,0,0,0,1.91.55,3.23,3.23,0,0,0,3.06-1.21,3.6,3.6,0,0,0-.15-4.82,3.53,3.53,0,0,0-3.84-1A3.27,3.27,0,0,0,63,9a4.1,4.1,0,0,0-.17,3.79A4.49,4.49,0,0,0,63.88,14Z"/><path class="cls-2" d="M30.56,21.13l.46.63,1.15-.58A27.85,27.85,0,0,1,40,18.68l.61-.1V11.71l-1.2-.59-1.28-.61a7,7,0,0,0-1.18,1,8.52,8.52,0,0,1-4.08,2.26,12.88,12.88,0,0,1-4.06-.08c-.4-.1-.48,0-.95,1-.28.56-.61,1.16-.71,1.31s0,.61,1.35,2.41C29.38,19.55,30.29,20.79,30.56,21.13Z"/><path class="cls-2" d="M45.64,15.15l0,3.43.63.1a26.77,26.77,0,0,1,7.8,2.48l1.19.6.47-.63c.26-.34,1.18-1.58,2-2.76l1.54-2.13L59,15.79c-.15-.23-.48-.83-.71-1.31-.38-.81-.47-.88-.87-.78a12.82,12.82,0,0,1-4,.08,8.42,8.42,0,0,1-4.1-2.27,7.15,7.15,0,0,0-1.17-1s-.61.29-1.27.62l-1.2.6Z"/><path class="cls-2" d="M9.54,22.65a2.78,2.78,0,0,0,1.91.57,2.86,2.86,0,0,0,1.94-.35,4.24,4.24,0,0,0,1.25-1.1,2.83,2.83,0,0,0,.55-1.91A3,3,0,0,0,14.91,18a3.73,3.73,0,0,0-4.57-1.8,3.78,3.78,0,0,0-2.2,2.38A3.6,3.6,0,0,0,9.54,22.65Z"/><path class="cls-2" d="M74.58,23.25a3.61,3.61,0,0,0,3.59-4.5,3,3,0,0,0-1-1.64,3.48,3.48,0,0,0-3.91-.92,3.82,3.82,0,0,0-2.19,2.36A3.58,3.58,0,0,0,74.58,23.25Z"/><path class="cls-2" d="M14.29,28.22a14.08,14.08,0,0,1,.22,1.48l.1,1,3.25,1.06,3.26,1.06.8-1.51a25.23,25.23,0,0,1,3.88-5.41A13.52,13.52,0,0,0,27,24.5c0-.07-.87-1.3-1.93-2.76a11.46,11.46,0,0,0-2.19-2.62c-.17,0-.65.1-1.12.18l-1.19.23a.57.57,0,0,0-.45.45c0,.2-.15.81-.25,1.35a8.69,8.69,0,0,1-4.55,5.91C14.29,27.75,14.21,27.84,14.29,28.22Z"/><path class="cls-2" d="M71.66,30.73l.1-1.05c.06-.56.15-1.23.21-1.46s0-.47-1-1a9.9,9.9,0,0,1-3.74-3.57,9,9,0,0,1-1-3.14c0-.77-.18-.93-1.18-1.1l-1.41-.25c-.5-.11-.55-.06-2.44,2.54-1.08,1.47-1.94,2.71-1.94,2.78a12.76,12.76,0,0,0,1.21,1.43,24.63,24.63,0,0,1,3.9,5.43l.79,1.48h.1l3.17-1.05Z"/><path class="cls-2" d="M45.21,23.42a17.36,17.36,0,0,0-4.38,0,20.11,20.11,0,0,0-8.33,3.06,25.6,25.6,0,0,0-5.4,5.4A19.35,19.35,0,0,0,28,54.34a24.94,24.94,0,0,0,4.27,4l1,.63A34.68,34.68,0,0,1,60.09,33.46,19.07,19.07,0,0,0,56.69,29,18.57,18.57,0,0,0,45.21,23.42ZM35.16,42.52V45H30.34V40h4.82ZM45.63,32.14v2.41h-5V29.73h5Z"/><path class="cls-2" d="M9.74,30.56a3.61,3.61,0,0,0-4.32-3.65,3.65,3.65,0,1,0,4.32,3.65Z"/><path class="cls-2" d="M76.56,30.25a2.7,2.7,0,0,0,.38,2A3.23,3.23,0,0,0,79.82,34a3.4,3.4,0,0,0,3.1-1.18A3.66,3.66,0,0,0,79,27,3.31,3.31,0,0,0,76.56,30.25Z"/><path class="cls-2" d="M19.58,37.41l-3-1c-1.68-.55-3.17-1-3.31-1a4.63,4.63,0,0,0-1.19,1l-.95,1,.65,1.28a8,8,0,0,1,0,7.52l-.67,1.33.95,1a4.76,4.76,0,0,0,1.19,1c.14,0,1.63-.45,3.31-1l3-1-.1-.7a26.24,26.24,0,0,1,0-8.84Z"/><path class="cls-2" d="M5.94,45.71a3.28,3.28,0,0,0,1.89-3.19,2.83,2.83,0,0,0-.5-1.91,3.81,3.81,0,0,0-4.56-1.48,3.65,3.65,0,1,0,3.17,6.58Z"/><path class="cls-2" d="M9.59,55.86a4.53,4.53,0,0,0-.4-3.34,3.79,3.79,0,0,0-4.27-1.44,3.68,3.68,0,0,0-.45,6.76,4.38,4.38,0,0,0,3.13.08A4.19,4.19,0,0,0,9.59,55.86Z"/><path class="cls-2" d="M21.92,53.7l-.8-1.51-3.26,1.07-3.25,1.06-.1,1a14.51,14.51,0,0,1-.22,1.48c-.08.4,0,.48,1,1a9.8,9.8,0,0,1,3.77,3.59,9.16,9.16,0,0,1,1,3.14c0,.78.22,1,1.2,1.11l1.39.23c.5.12.55.07,2.44-2.54C26.15,61.86,27,60.61,27,60.55a12.48,12.48,0,0,0-1.22-1.43A25.29,25.29,0,0,1,21.92,53.7Z"/><path class="cls-2" d="M13.75,62.38a2.76,2.76,0,0,0-1.9-.54,5.06,5.06,0,0,0-1.61.14,3.68,3.68,0,0,0-1.1,6.09,3.6,3.6,0,0,0,4.84.17A3.75,3.75,0,0,0,13.75,62.38Z"/><path class="cls-2" d="M31,63.29l-.46.63c-.27.33-1.18,1.58-2,2.76-1.3,1.79-1.52,2.17-1.35,2.41s.43.75.71,1.31c.47,1,.55,1,.95.95a13.32,13.32,0,0,1,3.57-.16,35.84,35.84,0,0,1-.2-3.76c0-1.17.06-2.33.17-3.47l-.2-.09Z"/><path class="cls-2" d="M19.26,70.45A3.92,3.92,0,0,0,16.56,74a3.73,3.73,0,0,0,5.54,3.21,4.78,4.78,0,0,0,1.23-1.13A2.88,2.88,0,0,0,23.78,74c0-1.26,0-1.43-.5-2.09A3.83,3.83,0,0,0,19.26,70.45Z"/><path class="cls-2" d="M32.64,76.16a4.45,4.45,0,0,0-3.31.14,4.53,4.53,0,0,0-1.23,1.09,4.64,4.64,0,0,0-.21,3.91,3.68,3.68,0,0,0,5.73.88,3.58,3.58,0,0,0,1.05-1.89,35.33,35.33,0,0,1-1.22-3.64A3.3,3.3,0,0,0,32.64,76.16Z"/><path class="cls-3" d="M65.16,32.87l.09,0h-.1Z"/><g class="cls-4"><path class="cls-2" d="M62.07,39.1a4.06,4.06,0,0,0-2.07,2,2.8,2.8,0,0,0-.35,1.8,3.27,3.27,0,0,0,1,2.69,4,4,0,0,0,5.68.19l.49-.45.49.45a3.7,3.7,0,0,0,2.11,1,4,4,0,0,0,2.47-.36,4.72,4.72,0,0,0,1.82-1.86A3.13,3.13,0,0,0,74,42.88a2.91,2.91,0,0,0-.37-1.8,4,4,0,0,0-2.12-2,3.44,3.44,0,0,0-1.64-.2,3.48,3.48,0,0,0-2.59,1l-.48.45-.47-.45a3.47,3.47,0,0,0-2.65-1A3.53,3.53,0,0,0,62.07,39.1Z"/><path class="cls-2" d="M56,40.7a4.09,4.09,0,0,0-2.47,2.35l-.37.78-1.15,0a3.58,3.58,0,0,0-3,1,4.05,4.05,0,0,0-1.29,2.45,2.19,2.19,0,0,1-.26.84,2.33,2.33,0,0,1-.85.26,4.07,4.07,0,0,0-2.44,1.3,3.58,3.58,0,0,0-1,3l0,1.14-.88.43a4.22,4.22,0,0,0-2.18,2.21,4.84,4.84,0,0,0,0,3.12l.27.77-.87.84a3.53,3.53,0,0,0-1.35,3,3.82,3.82,0,0,0,.83,2.55,2.61,2.61,0,0,1,.4.68,2.46,2.46,0,0,1-.4.68,3.86,3.86,0,0,0-.83,2.56,3.51,3.51,0,0,0,1.35,3l.87.85-.27.77a4.81,4.81,0,0,0,0,3.11,4.15,4.15,0,0,0,2.18,2.21l.88.44,0,1.14a3.58,3.58,0,0,0,1,3,4.07,4.07,0,0,0,2.44,1.3,2.19,2.19,0,0,1,.85.25,2.33,2.33,0,0,1,.26.85A4.05,4.05,0,0,0,49,90.08a3.61,3.61,0,0,0,3,1l1.14,0,.44.89a4.13,4.13,0,0,0,2.21,2.17,5,5,0,0,0,3.12,0l.77-.27.85.87a3.5,3.5,0,0,0,3,1.34,3.86,3.86,0,0,0,2.56-.83,2.46,2.46,0,0,1,.68-.4,2.46,2.46,0,0,1,.68.4,3.84,3.84,0,0,0,2.55.83,3.52,3.52,0,0,0,3-1.35l.85-.87.77.27a4.81,4.81,0,0,0,3.11,0A4.16,4.16,0,0,0,80,91.92l.43-.89,1.14,0a3.64,3.64,0,0,0,3-1,4.11,4.11,0,0,0,1.29-2.45,2.33,2.33,0,0,1,.26-.85,2.07,2.07,0,0,1,.85-.25,4.07,4.07,0,0,0,2.44-1.3,3.58,3.58,0,0,0,1-3l0-1.14.88-.44a4.19,4.19,0,0,0,2.18-2.21,5,5,0,0,0,0-3.12l-.26-.77.87-.85a3.49,3.49,0,0,0,1.33-3,3.91,3.91,0,0,0-.82-2.56,2.46,2.46,0,0,1-.4-.68,2.61,2.61,0,0,1,.4-.68,3.87,3.87,0,0,0,.82-2.55,3.51,3.51,0,0,0-1.33-3l-.87-.84.26-.77a5,5,0,0,0,0-3.13,4.25,4.25,0,0,0-2.18-2.21l-.88-.43,0-1.14a3.58,3.58,0,0,0-1-3A4.07,4.07,0,0,0,87,48.34a2.19,2.19,0,0,1-.85-.26,2.19,2.19,0,0,1-.26-.84,4.11,4.11,0,0,0-1.29-2.45,3.61,3.61,0,0,0-3-1l-1.14,0L80,43a4.06,4.06,0,0,0-2.76-2.35c-.29-.07-.31-.06-.24.18a7.32,7.32,0,0,1-5,9,6.87,6.87,0,0,1-4.53-.16c-.79-.26-.8-.26-1.28-.06a7,7,0,0,1-3.63.47,7.38,7.38,0,0,1-6-5,8.3,8.3,0,0,1,0-4.34C56.71,40.51,56.65,40.51,56,40.7ZM52.88,53.61a5.5,5.5,0,0,1,4.52,5.83l-.07.68,2.13,1.22c1.16.66,2.16,1.25,2.19,1.31a16.93,16.93,0,0,1-1.36,2.52c-.16.24-.17.23-2.38-1l-2.23-1.28-.48.37a5.26,5.26,0,0,1-6.81-.44A5,5,0,0,1,46.71,59,5.11,5.11,0,0,1,48.39,55a5.41,5.41,0,0,1,3.54-1.51A5.76,5.76,0,0,1,52.88,53.61Zm30.4.21a4.37,4.37,0,0,1,2,1.18,5.29,5.29,0,0,1,0,7.78,5.19,5.19,0,0,1-4.39,1.43,5.82,5.82,0,0,1-2.47-1L78,62.84l-2.15,1.25c-1.18.68-2.18,1.25-2.24,1.26A13.18,13.18,0,0,1,72,62.65c0-.06,1-.65,2.18-1.31l2.13-1.22-.06-.68a5.33,5.33,0,0,1,1.53-4.24A5.21,5.21,0,0,1,83.28,53.82ZM61,70.84a7.28,7.28,0,0,1,.69,1.38c0,.06-1,.65-2.19,1.31l-2.13,1.21.07.68a5.51,5.51,0,0,1-4.57,5.85,5.41,5.41,0,0,1-6.12-5.36,5,5,0,0,1,1.68-3.82,5.21,5.21,0,0,1,4.42-1.43,5.59,5.59,0,0,1,2.45,1l.41.34,2.21-1.27a24.11,24.11,0,0,1,2.26-1.24A13.31,13.31,0,0,1,61,70.84Zm15,0L78,72l.42-.34a5.81,5.81,0,0,1,2.47-1,5.19,5.19,0,0,1,4.39,1.43A5,5,0,0,1,87,75.91a5.42,5.42,0,0,1-6.13,5.36,5.5,5.5,0,0,1-4.56-5.85l.06-.68-2.13-1.21C73,72.87,72,72.28,72,72.22A4,4,0,0,1,72.59,71c1-1.75.91-1.64,1.19-1.45Zm-7.5,5.93v2.55l.63.3A6,6,0,0,1,72,83.21a5.36,5.36,0,0,1-1.51,5.12,5.21,5.21,0,0,1-7.39,0A5.33,5.33,0,0,1,62,82.08a7.08,7.08,0,0,1,2.48-2.41l.63-.31V74.24H68.5Z"/><path class="cls-2" d="M51.34,56.84A2.37,2.37,0,0,0,50,58.32,2.1,2.1,0,0,0,51.5,61a2.13,2.13,0,0,0,2.67-1.73A2.18,2.18,0,0,0,51.34,56.84Z"/><path class="cls-2" d="M80.72,56.92a2.14,2.14,0,1,0,2.76.95A2.19,2.19,0,0,0,80.72,56.92Z"/><path class="cls-2" d="M51.52,73.91a2.15,2.15,0,0,0,.27,4.19,2.16,2.16,0,0,0,2.27-2.94,2.28,2.28,0,0,0-1-1.09A2.66,2.66,0,0,0,51.52,73.91Z"/><path class="cls-2" d="M80.91,73.92a2.3,2.3,0,0,0-1.35,1.51,2.13,2.13,0,0,0,3.33,2.26A2.42,2.42,0,0,0,83.5,77,2.18,2.18,0,0,0,80.91,73.92Z"/><path class="cls-2" d="M65.88,82.58a1.91,1.91,0,0,0-1,.94,2.36,2.36,0,0,0,.42,2.57,2.4,2.4,0,0,0,3,0,2.16,2.16,0,0,0-2.44-3.51Z"/></g></svg>