<svg id="Layer_1" data-name="Layer 1" xmlns="http://www.w3.org/2000/svg" viewBox="0 0 96 96"><defs><style>.cls-1{fill:#fff;}</style></defs><path class="cls-1" d="M0,61.27a4.72,4.72,0,0,1,1.44-.65c1.4-.09,2.81,0,4.21,0s1.76.23,1.76,1.73v30c0,1.42-.23,1.64-1.63,1.65s-2.88,0-4.31,0A5.17,5.17,0,0,1,0,93.34Z"/><path class="cls-1" d="M96,71.87V92.31c0,1.4-.23,1.63-1.63,1.64H86.31c-1.18,0-1.42-.24-1.43-1.44,0-2.69,0-5.37,0-8.06,0-1.38-.27-1.64-1.64-1.64H72.37c-1.37,0-1.62.25-1.62,1.65,0,2.66,0,5.31,0,8,0,1.31-.23,1.53-1.54,1.53H37.62C36.25,94,36,93.7,36,92.29v-30c0-1.44.26-1.7,1.68-1.7,2.07,0,4.13,0,6.19,0a4,4,0,0,0,2.44-.73c4.59-3.14,9.2-6.24,13.81-9.35a1.5,1.5,0,0,1,.47-.3c.45-.12,1-.36,1.35-.2s.51.75.52,1.17c.05,2.09,0,4.18,0,6.28a6.26,6.26,0,0,0,0,.75c.12,1,.79,1.34,1.66.87a6.65,6.65,0,0,0,.62-.41c4.12-2.78,8.22-5.57,12.36-8.32.42-.27,1.19-.56,1.48-.36a2.07,2.07,0,0,1,.61,1.5c.07,1.9,0,3.81,0,5.71,0,.69-.28,1.53.51,2s1.35-.23,1.93-.62c4-2.71,8.06-5.46,12.12-8.15.44-.29,1.21-.57,1.57-.38S96,51,96,51.53C96,58.31,96,65.09,96,71.87Zm-44.28.84c0,.84,0,1.68,0,2.52a1.07,1.07,0,0,0,1.2,1.22h5a1.09,1.09,0,0,0,1.24-1.19c0-1.71,0-3.43,0-5.14A1.05,1.05,0,0,0,58.05,69H52.91c-.82,0-1.19.43-1.19,1.23S51.72,71.87,51.72,72.71Zm31.7-.08c0,.87,0,1.74,0,2.62a1.07,1.07,0,0,0,1.21,1.2h5.05a1.1,1.1,0,0,0,1.24-1.2c0-1.72,0-3.43,0-5.14A1.05,1.05,0,0,0,89.74,69H84.6c-.82,0-1.19.44-1.18,1.24S83.42,71.82,83.42,72.63ZM66.09,69c-.84,0-1.69,0-2.53,0a1.1,1.1,0,0,0-1.29,1.23q0,2.52,0,5a1.08,1.08,0,0,0,1.21,1.22h5.05c.79,0,1.23-.37,1.23-1.19,0-1.72,0-3.43,0-5.14A1,1,0,0,0,68.61,69Zm-21.22,7.5H47.4a1.09,1.09,0,0,0,1.23-1.21c0-1.71,0-3.43,0-5.15A1,1,0,0,0,47.44,69c-1.69,0-3.37,0-5.06,0a1.08,1.08,0,0,0-1.24,1.19c0,1.72,0,3.44,0,5.16a1.07,1.07,0,0,0,1.19,1.15ZM76.59,69c-.82,0-1.63,0-2.44,0a1.1,1.1,0,0,0-1.3,1.22c0,1.69,0,3.38,0,5.06a1.09,1.09,0,0,0,1.22,1.22h5.06a1.06,1.06,0,0,0,1.2-1.14c0-1.75,0-3.5,0-5.25A1,1,0,0,0,79.12,69C78.27,69,77.43,69,76.59,69Z"/><path class="cls-1" d="M33.91,64.44V92.18c0,1.56-.21,1.77-1.79,1.77h-21c-1.51,0-1.72-.22-1.72-1.74q0-27.84,0-55.66a2.4,2.4,0,0,1,1-2A12.14,12.14,0,0,1,16,32.14a25.78,25.78,0,0,1,14.55,1,11.24,11.24,0,0,1,1.82,1,3.17,3.17,0,0,1,1.61,3C33.87,46.2,33.91,55.32,33.91,64.44Z"/><path class="cls-1" d="M28,17.48c-.27-1.27-.21-1.61.78-4.23-2.72.43-5.41.75-8.06,1.28a9.57,9.57,0,0,0-5.48,3l-.26,0a11.25,11.25,0,0,1,.11-2c.64-2.83,2.57-4.62,5-6S25.31,7.81,28,7.26c1.53-.31,3-.69,4.54-1.09a13.05,13.05,0,0,0,5.74-3.38c.24-.23.49-.45.83-.75a8.59,8.59,0,0,1-1.27,5.79c5.17-1,10.36-1.45,14-5.78l.32.15a21.62,21.62,0,0,1-.38,3.12,10,10,0,0,1-5.32,6.21,22.45,22.45,0,0,1-8.8,2.31,17.44,17.44,0,0,0-7.09,1.86C29.7,16.21,28.91,16.87,28,17.48Z"/><path class="cls-1" d="M9.55,29.56c0-1.53-.05-3.22,0-4.9.06-1.52,1.21-2.27,2.35-2.93a16.89,16.89,0,0,1,7.34-2A24.2,24.2,0,0,1,30,21a13.71,13.71,0,0,1,1.93.93A3.77,3.77,0,0,1,34,25.72c-.11,1.32,0,2.65,0,4.11-2.74-2.68-6.08-3.35-9.52-3.68a23.48,23.48,0,0,0-11.41,1.38A32.41,32.41,0,0,0,9.55,29.56Z"/></svg>