<svg id="Layer_1" data-name="Layer 1" xmlns="http://www.w3.org/2000/svg" viewBox="0 0 96 96"><defs><style>.cls-1{fill:#fff;}</style></defs><path class="cls-1" d="M30.31,65.72a16.41,16.41,0,0,1-3.41,5.65A15.52,15.52,0,0,1,.05,59.75,14.87,14.87,0,0,1,9.16,46.67a5.56,5.56,0,0,0,2.32-1.92q1.37-1.86,2.78-3.69c.87-1.16,1.7-1.24,2.8-.29,3.4,2.94,6.8,5.87,10.18,8.83a1.93,1.93,0,0,0,1.4.52c3,0,6,0,9,0a2.37,2.37,0,0,0,1.86-.68L35,46.25c-2-1.39-4-2.73-5.95-4.17-4.25-3.16-9.1-5.29-13.68-7.86C12.26,32.48,9.1,30.82,6,29.15c-.75-.4-1.34-.88-1.22-1.81s.79-1.23,1.63-1.44a39.4,39.4,0,0,1,14.15-.65c.92.11,1.83.23,2.74.31a5.39,5.39,0,0,1,5,5,1,1,0,0,0,.65.95q5.31,2.31,10.57,4.7c.46.21.62.12.77-.31.26-.71.53-1.41.84-2.1A10.19,10.19,0,0,1,52.64,28c4.81,1.09,9.63,2.19,14.43,3.33.68.16,1.15.18,1.39-.55.16-.52,1.08-.63.83-1.24-.18-.44-.74-.72-1.13-1.07s-1-.85-1.47-1.31a1.54,1.54,0,0,1,.11-2.53c2-1.56,4.08-3.07,6.13-4.61a1.68,1.68,0,0,1,2.31.19,47.88,47.88,0,0,1,12.1,14.81c.71,1.36,1.39,2.74,2.07,4.12,1.43,2.91.58,5.56-2.27,7.15-.11.06-.21.14-.36.24a15.79,15.79,0,0,1,6.91,6.12,15.52,15.52,0,0,1-25.21,18A1.57,1.57,0,0,0,67.09,70c-8.92,0-17.84,0-26.75,0a11.91,11.91,0,0,1-8.38-3C31.45,66.61,30.91,66.2,30.31,65.72ZM76,31l-.31-.09s0,0-.06.06l.3.11a8.9,8.9,0,0,0,.67.7c1.57,1.4,3.13,2.8,4.72,4.17A1.73,1.73,0,0,1,82,38a1.64,1.64,0,0,1-1.77,1,15.51,15.51,0,0,0-2.26.06c-2.13.21-4.13.21-5.81-1.53a2.56,2.56,0,0,0-3.38.08c-2,1.66-4,3.29-6,5a2.61,2.61,0,0,1-2.26.63c-1.81-.27-3.63-.5-5.45-.71-1.1-.13-1.12-.09-.72.91,1.63,4.14,3.28,8.27,4.9,12.42a5.27,5.27,0,0,0,1,1.56c2.21,2.56,4.42,5.11,6.59,7.69.5.6.68.65,1.12-.07,3.53-5.78,7.1-11.54,10.64-17.33a3.6,3.6,0,0,1,1.56-1.41c1.86-.9,3.7-1.82,5.54-2.77,1.13-.58,1.55-1.48,1.07-2.49-.88-1.87-1.85-3.69-2.79-5.52a1,1,0,0,0-.36-.45A51,51,0,0,0,76,31ZM37.49,44.15c1.29.91,2.54,1.74,3.73,2.65.63.48,1,.49,1.42-.24.89-1.45,1.83-2.88,2.83-4.25A7.58,7.58,0,0,1,53,39.09c2.41.31,4.81.57,7.21.89a1.43,1.43,0,0,0,1.24-.36c1.62-1.38,3.26-2.73,4.89-4.1.3-.26.7-.44.89-.87-.25-.08-.44-.16-.63-.2l-14-3.22c-4.06-.93-7.18.64-8.82,4.45-.9,2.1-1.82,4.2-2.67,6.33a2.41,2.41,0,0,1-1.92,1.61A4,4,0,0,0,37.49,44.15Zm3.26,15.5H41c0,2.16,0,4.32,0,6.49,0,.54.14.68.7.72a10.5,10.5,0,0,0,6.66-1.41,18,18,0,0,1,1.76-.87c1.4-.69,3.11-1.09,4.11-2.16s1.34-2.85,2-4.3a1.6,1.6,0,0,0,0-1.4q-2.54-6.3-5-12.62c-.76-1.89-1.27-2-2.69-.44a6.85,6.85,0,0,0-.64.86c-.88,1.3-1.81,2.58-2.6,3.93a8.76,8.76,0,0,1-3.89,3.73,1,1,0,0,0-.61,1.08C40.77,55.39,40.75,57.52,40.75,59.65Zm-3,7c0-1.07,0-2.05,0-3a1.4,1.4,0,0,0-.59-1.24q-6.48-5.58-12.94-11.2l-4.68-4c-.3,1.55-.56,3-.87,4.41-.12.54.18.76.52,1L34.46,65A7.6,7.6,0,0,0,37.75,66.65ZM22,60.8a3,3,0,0,0-1.35-2.95c-.51-.42-.7-.24-1,.17s0,.74.1,1.07a4.53,4.53,0,1,1-5.37-2.68,3.86,3.86,0,0,1,2.13,0c.56.16.65-.31.9-.56s.28-.36,0-.58a2.89,2.89,0,0,0-1.95-.95A6.49,6.49,0,1,0,22,60.8Zm55.92-6c.55,1,1,1.7,2.44,1.55a4.34,4.34,0,0,1,4.57,4,4.53,4.53,0,0,1-8.85,1.79,4.4,4.4,0,0,1,.27-3.25c.17-.34.25-.65-.08-.86s-.44.25-.56.43c-.53.78-1,1.6-1.51,2.41a1.28,1.28,0,0,0-.21.92,6.48,6.48,0,1,0,3.93-7ZM25.17,35.83c0-1.72,0-3.42,0-5.11a2.15,2.15,0,0,0-2-2,64.9,64.9,0,0,0-8-.67c-1.29,0-2.58.09-4.08.14C12,28.9,24.39,35.56,25.17,35.83Zm-8.43,9.08c.09-.31-.26-.51-.55-.7s-.49.19-.64.38c-.69.87-1.33,1.78-2,2.66-.23.3-.31.54,0,.82.6.45,1.18.94,1.76,1.41.28.21.48.18.56-.19ZM15.53,59.46a1.37,1.37,0,0,0-1.31,1.31,1.33,1.33,0,1,0,2.65,0A1.37,1.37,0,0,0,15.53,59.46Zm66.3,1.29a1.39,1.39,0,0,0-1.41-1.34,1.36,1.36,0,0,0-1.34,1.39,1.38,1.38,0,0,0,1.4,1.35A1.4,1.4,0,0,0,81.83,60.75ZM71.78,34c.56,0,.91-.28.94-.8a.89.89,0,0,0-1.78-.15A.84.84,0,0,0,71.78,34Z"/><path class="cls-1" d="M74.15,47a2.13,2.13,0,0,1-.4,1.21c-1,1.61-2,3.23-3,4.83-.63,1-1.5,1.3-2.3.82s-1-1.43-.36-2.48c1-1.68,2.07-3.34,3.11-5a1.56,1.56,0,0,1,2-.71A1.52,1.52,0,0,1,74.15,47Z"/><path class="cls-1" d="M64,50.8a1.5,1.5,0,0,1-1.53-2.2c1.09-1.94,2.29-3.82,3.51-5.67a1.4,1.4,0,0,1,2-.38,1.5,1.5,0,0,1,.57,2.05c-1.12,1.91-2.32,3.79-3.52,5.66A1.21,1.21,0,0,1,64,50.8Z"/><path class="cls-1" d="M47.93,63.39A6.34,6.34,0,1,1,54.3,57,6.35,6.35,0,0,1,47.93,63.39Zm0-9.46A3.12,3.12,0,1,0,51,57.06,3.1,3.1,0,0,0,47.92,53.93Z"/></svg>