<svg id="Layer_1" data-name="Layer 1" xmlns="http://www.w3.org/2000/svg" viewBox="0 0 96 96"><defs><style>.cls-1{fill:#fff;}</style></defs><path class="cls-1" d="M0,68.27a19.5,19.5,0,0,1,.67-3.09,44.28,44.28,0,0,1,2.42-5.56c1.91-3.5,4-6.92,6-10.5-.73-.43-1.4-.85-2.1-1.23a1.94,1.94,0,0,1,.3-3.7c4.68-1.62,9.36-3.28,14-4.91,1.59-.55,2.55,0,2.9,1.61,1.06,5,2.09,10,3.15,15A1.91,1.91,0,0,1,24.48,58l-2.54-1.47c-.16.23-.29.39-.39.57-2,3.52-4.09,7-6.09,10.55a4.56,4.56,0,0,0,2.66,6.84A7.13,7.13,0,0,0,20,74.7H33c2,0,2.62.59,2.62,2.63v9.75c0,1.74-.64,2.38-2.37,2.38-4.53,0-9.06,0-13.59,0a19.28,19.28,0,0,1-19.51-17A2.35,2.35,0,0,0,0,72Z"/><path class="cls-1" d="M70.7,21l2.48-1.41a1.8,1.8,0,0,1,2.11.07,1.9,1.9,0,0,1,.73,2c-.8,4.77-1.58,9.55-2.38,14.32-.32,2-1.26,2.51-3.18,1.89-4.71-1.54-9.42-3.1-14.14-4.62-.92-.3-1.57-.77-1.66-1.78a2,2,0,0,1,1.27-2c.63-.34,1.24-.71,1.9-1.1-.16-.3-.28-.55-.42-.78-1.74-3-3.48-6.07-5.24-9.09-2.05-3.52-6.3-3.5-8.36,0s-4.24,7.36-6.37,11c-.92,1.59-1.78,1.81-3.39.89l-8.67-5a2,2,0,0,1-.84-3.06c2.21-3.84,4.39-7.71,6.65-11.52a19.51,19.51,0,0,1,33.71.15c1.76,3,3.49,6.06,5.24,9.09C70.31,20.43,70.5,20.71,70.7,21Z"/><path class="cls-1" d="M64.49,89.16c0,1-.06,1.93-.09,2.86a1.79,1.79,0,0,1-1.15,1.76,1.9,1.9,0,0,1-2.08-.41c-3.66-3.16-7.34-6.3-11-9.46-1.5-1.3-1.49-2.39,0-3.7C54,77,57.74,73.76,61.49,70.52A2,2,0,0,1,63.87,70a2,2,0,0,1,1,2.12c0,.71,0,1.42,0,2.19l.89,0c3.5.08,7,.17,10.49.23,4.07.07,6.26-3.57,4.31-7.17S76.47,60,74.43,56.29c-.88-1.61-.62-2.47,1-3.36l8.79-4.82a2,2,0,0,1,3,.88c2.14,3.88,4.31,7.75,6.39,11.66A19.49,19.49,0,0,1,76,89.38c-3.5-.06-7-.15-10.49-.23Z"/></svg>